<svg width="24" height="25" viewBox="0 0 24 25" fill="none" xmlns="http://www.w3.org/2000/svg">
<path d="M10.6173 4.93748C11.2877 6.94842 10.6033 8.97811 9.08922 9.47498C7.57516 9.97186 5.80329 8.74373 5.13297 6.7328C4.46266 4.72186 5.14704 2.69217 6.6611 2.1953C8.17516 1.69842 9.94703 2.92655 10.6173 4.93748ZM4.70641 9.89217C5.59235 11.4109 5.37672 13.1781 4.22828 13.8344C3.07985 14.4906 1.42985 13.7922 0.548598 12.2734C-0.332652 10.7547 -0.126402 8.98748 1.02204 8.33123C2.17047 7.67498 3.82047 8.37342 4.70172 9.89217H4.70641ZM3.24391 19.389C5.70016 12.7656 10.0642 11.0828 12.0002 11.0828C13.9361 11.0828 18.3002 12.7656 20.7564 19.389C20.9252 19.8437 21.0002 20.3312 21.0002 20.8187V20.8937C21.0002 22.1031 20.0205 23.0828 18.8111 23.0828C18.272 23.0828 17.7377 23.0172 17.2173 22.8859L13.0923 21.8547C12.3752 21.6765 11.6252 21.6765 10.908 21.8547L6.78297 22.8859C6.26266 23.0172 5.72828 23.0828 5.18922 23.0828C3.97985 23.0828 3.00016 22.1031 3.00016 20.8937V20.8187C3.00016 20.3312 3.07516 19.8437 3.24391 19.389ZM19.772 13.8344C18.6236 13.1781 18.408 11.4109 19.2939 9.89217C20.1798 8.37342 21.8252 7.67498 22.9736 8.33123C24.122 8.98748 24.3377 10.7547 23.4517 12.2734C22.5658 13.7922 20.9205 14.4906 19.772 13.8344ZM14.5361 9.47498C13.022 8.97811 12.3377 6.94842 13.008 4.93748C13.6783 2.92655 15.4502 1.69842 16.9642 2.1953C18.4783 2.69217 19.1627 4.72186 18.4923 6.7328C17.822 8.74373 16.0502 9.97186 14.5361 9.47498Z" fill="black"/>
</svg>
