<svg width="25" height="20" viewBox="0 0 25 20" fill="none" xmlns="http://www.w3.org/2000/svg">
<path d="M1.25 1.77051C1.94141 1.77051 2.5 2.30117 2.5 2.95801V12.458H11.25V6.52051C11.25 5.86367 11.8086 5.33301 12.5 5.33301H21.25C23.3203 5.33301 25 6.92871 25 8.89551V17.208C25 17.8648 24.4414 18.3955 23.75 18.3955C23.0586 18.3955 22.5 17.8648 22.5 17.208V16.0205H13.75H12.5H2.5V17.208C2.5 17.8648 1.94141 18.3955 1.25 18.3955C0.558594 18.3955 0 17.8648 0 17.208V2.95801C0 2.30117 0.558594 1.77051 1.25 1.77051ZM6.875 5.33301C7.7038 5.33301 8.49866 5.64579 9.08471 6.20253C9.67076 6.75928 10 7.5144 10 8.30176C10 9.08912 9.67076 9.84423 9.08471 10.401C8.49866 10.9577 7.7038 11.2705 6.875 11.2705C6.0462 11.2705 5.25134 10.9577 4.66529 10.401C4.07924 9.84423 3.75 9.08912 3.75 8.30176C3.75 7.5144 4.07924 6.75928 4.66529 6.20253C5.25134 5.64579 6.0462 5.33301 6.875 5.33301Z" fill="black"/>
</svg>
