<svg width="25" height="23" viewBox="0 0 25 23" fill="none" xmlns="http://www.w3.org/2000/svg">
<path d="M15.625 4.8107C16.1223 4.8107 16.5992 4.59551 16.9508 4.21245C17.3025 3.8294 17.5 3.30987 17.5 2.76814C17.5 2.22642 17.3025 1.70689 16.9508 1.32384C16.5992 0.940783 16.1223 0.725586 15.625 0.725586C15.1277 0.725586 14.6508 0.940783 14.2992 1.32384C13.9475 1.70689 13.75 2.22642 13.75 2.76814C13.75 3.30987 13.9475 3.8294 14.2992 4.21245C14.6508 4.59551 15.1277 4.8107 15.625 4.8107ZM16.6875 7.53412L14.2734 5.45751C13.5977 4.87879 12.6445 4.87028 11.9648 5.44475L8.71875 8.17667C7.51953 9.18944 7.60547 11.1894 8.88672 12.0746L11.25 13.7086V18.4278C11.25 19.181 11.8086 19.7895 12.5 19.7895C13.1914 19.7895 13.75 19.181 13.75 18.4278V12.9809C13.75 12.5256 13.543 12.1001 13.1953 11.849L11.5234 10.6363L13.8789 8.57242L15.4688 9.95965C15.6914 10.1511 15.9648 10.2575 16.25 10.2575H18.75C19.4414 10.2575 20 9.64902 20 8.89582C20 8.14263 19.4414 7.53412 18.75 7.53412H16.6875ZM2.1875 17.0661C2.1875 16.2535 2.48382 15.4742 3.01126 14.8996C3.53871 14.325 4.25408 14.0022 5 14.0022C5.74592 14.0022 6.46129 14.325 6.98874 14.8996C7.51618 15.4742 7.8125 16.2535 7.8125 17.0661C7.8125 17.8786 7.51618 18.6579 6.98874 19.2325C6.46129 19.8071 5.74592 20.1299 5 20.1299C4.25408 20.1299 3.53871 19.8071 3.01126 19.2325C2.48382 18.6579 2.1875 17.8786 2.1875 17.0661ZM10 17.0661C10 15.6215 9.47322 14.236 8.53553 13.2146C7.59785 12.1931 6.32608 11.6192 5 11.6192C3.67392 11.6192 2.40215 12.1931 1.46447 13.2146C0.526784 14.236 0 15.6215 0 17.0661C0 18.5106 0.526784 19.8961 1.46447 20.9175C2.40215 21.939 3.67392 22.5129 5 22.5129C6.32608 22.5129 7.59785 21.939 8.53553 20.9175C9.47322 19.8961 10 18.5106 10 17.0661ZM17.1875 17.0661C17.1875 16.2535 17.4838 15.4742 18.0113 14.8996C18.5387 14.325 19.2541 14.0022 20 14.0022C20.7459 14.0022 21.4613 14.325 21.9887 14.8996C22.5162 15.4742 22.8125 16.2535 22.8125 17.0661C22.8125 17.8786 22.5162 18.6579 21.9887 19.2325C21.4613 19.8071 20.7459 20.1299 20 20.1299C19.2541 20.1299 18.5387 19.8071 18.0113 19.2325C17.4838 18.6579 17.1875 17.8786 17.1875 17.0661ZM25 17.0661C25 15.6215 24.4732 14.236 23.5355 13.2146C22.5979 12.1931 21.3261 11.6192 20 11.6192C18.6739 11.6192 17.4021 12.1931 16.4645 13.2146C15.5268 14.236 15 15.6215 15 17.0661C15 18.5106 15.5268 19.8961 16.4645 20.9175C17.4021 21.939 18.6739 22.5129 20 22.5129C21.3261 22.5129 22.5979 21.939 23.5355 20.9175C24.4732 19.8961 25 18.5106 25 17.0661Z" fill="black"/>
</svg>
