<svg width="20" height="22" viewBox="0 0 20 22" fill="none" xmlns="http://www.w3.org/2000/svg">
<path d="M6.27986 4.26884C6.82679 4.96161 7.49092 5.52805 8.21365 5.98854C9.22547 6.63241 10.3115 7.044 11.2491 7.27628V5.99262C10.3818 4.75786 9.76459 3.25006 9.7099 1.47738C9.69427 1.01689 9.4169 0.601231 8.99107 0.483053C8.69417 0.40155 8.37382 0.474903 8.17068 0.71941C7.65109 1.34698 6.8932 2.53691 6.27986 4.27292V4.26884ZM12.4992 6.20452V7.45151V7.50449V8.8126C10.124 8.60477 5.27195 7.0277 3.93197 2.40651C3.80305 1.9664 3.43192 1.64039 2.99047 1.64039C2.68184 1.64039 2.39275 1.79932 2.25602 2.08865C1.82629 3.02185 1.2481 4.90456 1.2481 7.50856C1.2481 12.2724 4.37732 14.8642 5.87357 15.7729L0.45896 17.3133C0.259721 17.3704 0.0995486 17.5252 0.0331356 17.729C-0.0332774 17.9327 0.00188245 18.1609 0.122988 18.3321C0.845718 19.3346 3.01781 21.201 6.24861 21.201C6.38925 21.201 6.52989 21.1521 6.63927 21.0583L9.5927 18.5929H12.4992C15.9527 18.5929 18.7499 15.6751 18.7499 12.0727V5.55251L19.918 3.72278C19.9687 3.64127 20 3.54347 20 3.44567C20 3.16856 19.7851 2.94443 19.5195 2.94443H15.6246C13.8978 2.94443 12.4992 4.40332 12.4992 6.20452ZM15.6246 5.55251C15.7903 5.55251 15.9493 5.6212 16.0665 5.74348C16.1838 5.86576 16.2496 6.0316 16.2496 6.20452C16.2496 6.37745 16.1838 6.54329 16.0665 6.66557C15.9493 6.78785 15.7903 6.85654 15.6246 6.85654C15.4588 6.85654 15.2998 6.78785 15.1826 6.66557C15.0653 6.54329 14.9995 6.37745 14.9995 6.20452C14.9995 6.0316 15.0653 5.86576 15.1826 5.74348C15.2998 5.6212 15.4588 5.55251 15.6246 5.55251Z" fill="black"/>
</svg>
