<svg width="26" height="22" viewBox="0 0 26 22" fill="none" xmlns="http://www.w3.org/2000/svg">
<g clip-path="url(#clip0_290_842)">
<path d="M6.95906 4.52051H9.1V8.45801H4.52156L5.75656 5.34492C5.95156 4.84863 6.42687 4.52051 6.95906 4.52051ZM11.05 8.45801V4.52051H14.3488C14.7428 4.52051 15.1166 4.70098 15.3644 5.0127L18.0944 8.45801H11.05ZM21.4581 8.49902L17.3956 3.37207C16.6562 2.43691 15.535 1.89551 14.3488 1.89551H6.95906C5.3625 1.89551 3.92844 2.87578 3.33937 4.36875L1.64937 8.63848C0.6825 9.02402 0 9.97148 0 11.083V15.6768C0 16.4027 0.580937 16.9893 1.3 16.9893H2.65281C2.96156 18.8514 4.56625 20.2705 6.5 20.2705C8.43375 20.2705 10.0384 18.8514 10.3472 16.9893H15.6569C15.9656 18.8514 17.5703 20.2705 19.5041 20.2705C21.4378 20.2705 23.0425 18.8514 23.3512 16.9893H24.7041C25.4231 16.9893 26.0041 16.4027 26.0041 15.6768V13.708C26.0041 11.0338 24.0216 8.82715 21.4622 8.49902H21.4581ZM17.6597 15.6768C17.7424 15.4297 17.873 15.2017 18.0438 15.006C18.2146 14.8103 18.4222 14.6508 18.6545 14.5368C18.8868 14.4227 19.1393 14.3565 19.3973 14.3418C19.6552 14.3271 19.9134 14.3643 20.157 14.4513C20.4005 14.5382 20.6246 14.6732 20.816 14.8483C21.0075 15.0234 21.1626 15.2352 21.2723 15.4713C21.382 15.7074 21.4442 15.9632 21.4552 16.2238C21.4661 16.4844 21.4257 16.7446 21.3363 16.9893C21.2535 17.2363 21.1229 17.4643 20.9522 17.6601C20.7814 17.8558 20.5738 18.0152 20.3414 18.1293C20.1091 18.2433 19.8566 18.3095 19.5987 18.3242C19.3408 18.3389 19.0825 18.3017 18.8389 18.2147C18.5954 18.1278 18.3714 17.9928 18.1799 17.8177C17.9884 17.6426 17.8333 17.4309 17.7236 17.1947C17.6139 16.9586 17.5517 16.7028 17.5408 16.4422C17.5298 16.1816 17.5702 15.9214 17.6597 15.6768ZM6.5 14.3643C7.01717 14.3643 7.51316 14.5717 7.87886 14.9409C8.24455 15.3101 8.45 15.8109 8.45 16.333C8.45 16.8552 8.24455 17.3559 7.87886 17.7251C7.51316 18.0943 7.01717 18.3018 6.5 18.3018C5.98283 18.3018 5.48684 18.0943 5.12114 17.7251C4.75545 17.3559 4.55 16.8552 4.55 16.333C4.55 15.8109 4.75545 15.3101 5.12114 14.9409C5.48684 14.5717 5.98283 14.3643 6.5 14.3643Z" fill="black"/>
</g>
<defs>
<clipPath id="clip0_290_842">
<rect width="26" height="21" fill="white" transform="translate(0 0.583008)"/>
</clipPath>
</defs>
</svg>
