<svg width="22" height="23" viewBox="0 0 22 23" fill="none" xmlns="http://www.w3.org/2000/svg">
<g clip-path="url(#clip0_290_802)">
<path d="M11 22.4277C13.9174 22.4277 16.7153 21.2688 18.7782 19.2059C20.8411 17.143 22 14.3451 22 11.4277C22 8.51035 20.8411 5.71246 18.7782 3.64956C16.7153 1.58666 13.9174 0.427734 11 0.427734C8.08262 0.427734 5.28473 1.58666 3.22183 3.64956C1.15893 5.71246 0 8.51035 0 11.4277C0 14.3451 1.15893 17.143 3.22183 19.2059C5.28473 21.2688 8.08262 22.4277 11 22.4277ZM13.1785 14.3969L6.97812 16.7816C6.14453 17.1039 5.32383 16.2832 5.64609 15.4496L8.03086 9.24922C8.17266 8.88398 8.45625 8.60039 8.82148 8.45859L15.0219 6.07383C15.8555 5.75156 16.6762 6.57227 16.3539 7.40586L13.9691 13.6063C13.8316 13.9715 13.5438 14.2551 13.1785 14.3969ZM12.375 11.4277C12.375 11.0631 12.2301 10.7133 11.9723 10.4555C11.7144 10.1976 11.3647 10.0527 11 10.0527C10.6353 10.0527 10.2856 10.1976 10.0277 10.4555C9.76987 10.7133 9.625 11.0631 9.625 11.4277C9.625 11.7924 9.76987 12.1421 10.0277 12.4C10.2856 12.6579 10.6353 12.8027 11 12.8027C11.3647 12.8027 11.7144 12.6579 11.9723 12.4C12.2301 12.1421 12.375 11.7924 12.375 11.4277Z" fill="black"/>
</g>
<defs>
<clipPath id="clip0_290_802">
<rect width="22" height="22" fill="white" transform="translate(0 0.427734)"/>
</clipPath>
</defs>
</svg>
