<svg width="22" height="23" viewBox="0 0 22 23" fill="none" xmlns="http://www.w3.org/2000/svg">
<g clip-path="url(#clip0_290_869)">
<path d="M22 1.95801C22 6.83926 18.3648 10.874 13.6555 11.4971C13.3504 9.20254 12.3406 7.13145 10.8496 5.51152C12.4953 2.57246 15.6406 0.583008 19.25 0.583008H20.625C21.3855 0.583008 22 1.19746 22 1.95801ZM0 4.70801C0 3.94746 0.614453 3.33301 1.375 3.33301H2.75C8.06523 3.33301 12.375 7.64277 12.375 12.958V14.333V21.208C12.375 21.9686 11.7605 22.583 11 22.583C10.2395 22.583 9.625 21.9686 9.625 21.208V14.333C4.30977 14.333 0 10.0232 0 4.70801Z" fill="black"/>
</g>
<defs>
<clipPath id="clip0_290_869">
<rect width="22" height="22" fill="white" transform="translate(0 0.583008)"/>
</clipPath>
</defs>
</svg>
