<svg width="22" height="23" viewBox="0 0 22 23" fill="none" xmlns="http://www.w3.org/2000/svg">
<g clip-path="url(#clip0_290_862)">
<path fill-rule="evenodd" clip-rule="evenodd" d="M19.25 18.458H2.75C2.36981 18.458 2.0625 18.7653 2.0625 19.1455C2.0625 19.5257 2.36981 19.833 2.75 19.833H19.25C19.6302 19.833 19.9375 19.5257 19.9375 19.1455C19.9375 18.7653 19.6302 18.458 19.25 18.458ZM21.3125 15.708H0.6875C0.307313 15.708 0 16.0153 0 16.3955C0 16.7757 0.307313 17.083 0.6875 17.083H21.3125C21.6927 17.083 22 16.7757 22 16.3955C22 16.0153 21.6927 15.708 21.3125 15.708ZM21.6398 14.333C21.8666 13.453 22 12.5345 22 11.583C22 5.50826 17.0754 0.583008 11 0.583008C4.92456 0.583008 0 5.50826 0 11.583C0 12.5345 0.133366 13.453 0.360241 14.333H21.6398ZM14.4375 21.208H7.5625C7.18231 21.208 6.875 21.5153 6.875 21.8955C6.875 22.2757 7.18231 22.583 7.5625 22.583H14.4375C14.8177 22.583 15.125 22.2757 15.125 21.8955C15.125 21.5153 14.8177 21.208 14.4375 21.208Z" fill="black"/>
</g>
<defs>
<clipPath id="clip0_290_862">
<rect width="22" height="22" fill="white" transform="translate(0 0.583008)"/>
</clipPath>
</defs>
</svg>
