<svg width="17" height="23" viewBox="0 0 17 23" fill="none" xmlns="http://www.w3.org/2000/svg">
<path d="M8.35914 2.15625C8.35914 1.58438 8.58674 1.03593 8.99186 0.631551C9.39697 0.227176 9.94643 0 10.5194 0C11.0923 0 11.6417 0.227176 12.0469 0.631551C12.452 1.03593 12.6796 1.58438 12.6796 2.15625C12.6796 2.72812 12.452 3.27657 12.0469 3.68095C11.6417 4.08532 11.0923 4.3125 10.5194 4.3125C9.94643 4.3125 9.39697 4.08532 8.99186 3.68095C8.58674 3.27657 8.35914 2.72812 8.35914 2.15625ZM10.6679 10.3635L9.80829 13.791L12.045 16.0236C12.45 16.4279 12.6796 16.976 12.6796 17.5465V21.5625C12.6796 22.3576 12.036 23 11.2394 23C10.4428 23 9.79929 22.3576 9.79929 21.5625V17.8475L6.47346 14.5277C5.76239 13.818 5.47436 12.7938 5.71288 11.8189L6.63097 8.04551C7.00451 6.51367 8.55266 5.5793 10.0828 5.96113C10.9379 6.17676 11.685 6.69785 12.171 7.43008L13.4491 9.34375H14.8398V8.26562C14.8398 7.66816 15.3213 7.1875 15.9199 7.1875C16.5185 7.1875 17 7.66816 17 8.26562V10.7723C17 10.7768 17 10.7812 17 10.7812V10.7902V21.9219C17 22.5193 16.5185 23 15.9199 23C15.3213 23 14.8398 22.5193 14.8398 21.9219V12.2188H13.0666C12.3465 12.2188 11.6715 11.8594 11.2709 11.2574L10.6724 10.359L10.6679 10.3635ZM3.36815 21.1986L4.99731 15.0039C5.13232 15.1926 5.28534 15.3723 5.45186 15.5385L7.33754 17.4207L6.14942 21.9264C5.9469 22.6945 5.15933 23.1527 4.38975 22.9506C3.62017 22.7484 3.16113 21.9623 3.36365 21.1941L3.36815 21.1986ZM5.8659 5.65566L4.28174 11.9717C4.14673 12.5152 3.61117 12.8656 3.05762 12.7758L0.901904 12.4164C0.271842 12.3131 -0.128698 11.6842 0.0378185 11.0687L1.15393 6.96289C1.58147 5.39961 3.00361 4.3125 4.62827 4.3125H4.81729C5.51936 4.3125 6.03691 4.97285 5.8659 5.65117V5.65566Z" fill="black"/>
</svg>
