<svg width="23" height="24" viewBox="0 0 23 24" fill="none" xmlns="http://www.w3.org/2000/svg">
<g clip-path="url(#clip0_290_815)">
<path d="M18.6331 1.42675C18.0841 1.97576 17.9215 2.76433 18.1442 3.45584L15.8071 5.79289C14.5126 5.13498 13.049 4.76365 11.5002 4.76365C10.7442 4.76365 9.99088 4.85258 9.26049 5.02807C9.23365 5.03451 9.20722 5.04216 9.18043 5.04884C9.15219 5.0418 9.12352 5.03475 9.09424 5.02776L9.08312 5.07411C8.42843 5.24535 7.79469 5.48565 7.19162 5.79131L4.85615 3.45578C5.07884 2.76427 4.91629 1.9757 4.36728 1.42669C3.58612 0.645529 2.31967 0.645529 1.53851 1.42669C0.757346 2.20786 0.757346 3.4743 1.53851 4.25547C2.08751 4.80447 2.87609 4.96702 3.56759 4.74433L5.61782 6.79455C3.3347 8.5882 1.96153 11.3546 1.96153 14.3022C1.96153 15.0583 2.05046 15.8117 2.22595 16.5419C2.43515 17.41 2.76505 18.2432 3.20665 19.0187C4.05676 20.5096 5.29399 21.7466 6.78476 22.5961C7.5601 23.0376 8.39307 23.3674 9.2611 23.5766C9.99082 23.752 10.7442 23.8409 11.5002 23.8409C14.9204 23.8409 18.0983 21.9932 19.794 19.0183C20.2354 18.2432 20.5652 17.41 20.7745 16.5414C20.9499 15.8117 21.0388 15.0584 21.0388 14.3023C21.0388 11.2592 19.6064 8.54446 17.3805 6.79674L19.4328 4.74439C20.1243 4.96708 20.9128 4.80453 21.4618 4.25553C22.243 3.47436 22.243 2.20792 21.4618 1.42675C20.6807 0.64559 19.4142 0.64559 18.6331 1.42675ZM13.9664 11.3001C14.368 12.2497 14.572 13.2576 14.572 14.302C14.572 14.6542 14.5486 15.0052 14.5024 15.3456C14.101 18.3155 12.0227 20.7688 9.17721 21.663C8.87204 21.5668 8.57373 21.4507 8.28307 21.3172C9.9011 19.8252 10.9685 17.8085 11.2699 15.611C11.3292 15.1811 11.3593 14.7407 11.3593 14.302C11.3593 14.2654 11.3592 14.2288 11.3585 14.1916C11.3423 12.7804 11.025 11.4244 10.4153 10.1613C10.2777 9.87614 10.1251 9.59618 9.96172 9.32951C9.50201 8.57835 8.93199 7.88806 8.28191 7.28785C8.57281 7.15422 8.87137 7.03802 9.17667 6.94174C11.2067 7.58015 12.8888 9.03509 13.8165 10.9661C13.8166 10.9663 13.8166 10.9664 13.8167 10.9665L13.8166 10.9666C13.8695 11.0768 13.9191 11.1881 13.9664 11.3001ZM4.51714 17.5894C4.38223 17.3031 4.26542 17.0087 4.16683 16.7079C4.89466 14.3171 6.72311 12.4449 9.0697 11.6527C9.36941 12.47 9.52649 13.3288 9.53639 14.2149L9.53651 14.2221C9.537 14.249 9.53694 14.2754 9.53694 14.3019C9.53694 14.4384 9.53226 14.5748 9.52509 14.711C7.59824 15.1287 5.84755 16.1392 4.51714 17.5894ZM6.66048 8.29268C7.26755 8.78349 7.80277 9.36857 8.23696 10.016C7.00429 10.4727 5.8727 11.1821 4.91817 12.1053C4.52443 12.4861 4.1661 12.8984 3.84568 13.3365C4.09679 11.3562 5.11103 9.54424 6.66048 8.29268ZM5.53526 19.1982C6.47892 18.0264 7.74111 17.1583 9.15735 16.6962C8.69576 18.1093 7.82955 19.3695 6.66054 20.3123C6.24852 19.9801 5.87124 19.607 5.53526 19.1982ZM19.2165 14.3022C19.2165 14.915 19.1445 15.5251 19.0028 16.115C18.8337 16.8167 18.5671 17.4901 18.2106 18.1162C17.0182 20.208 14.9199 21.6107 12.5746 21.9423C14.584 20.4398 15.9592 18.173 16.3083 15.5901C16.3083 15.5899 16.3084 15.5898 16.3084 15.5898H16.3086C16.3656 15.1675 16.3946 14.7343 16.3946 14.3022C16.3946 12.9528 16.1196 11.6523 15.5768 10.432C15.539 10.3468 15.5 10.262 15.4596 10.1777C14.7845 8.77249 13.786 7.57153 12.567 6.66001C16.3186 7.18119 19.2165 10.4094 19.2165 14.3022Z" fill="black"/>
</g>
<defs>
<clipPath id="clip0_290_815">
<rect width="23" height="23" fill="white" transform="translate(0 0.84082)"/>
</clipPath>
</defs>
</svg>
