<svg width="154" height="18" viewBox="0 0 154 18" fill="none" xmlns="http://www.w3.org/2000/svg">
<path d="M20.25 5.625C21.0172 5.625 21.753 5.32868 22.2956 4.80124C22.8381 4.27379 23.1429 3.55842 23.1429 2.8125C23.1429 2.06658 22.8381 1.35121 22.2956 0.823762C21.753 0.296316 21.0172 0 20.25 0C19.4828 0 18.747 0.296316 18.2044 0.823762C17.6619 1.35121 17.3571 2.06658 17.3571 2.8125C17.3571 3.55842 17.6619 4.27379 18.2044 4.80124C18.747 5.32868 19.4828 5.625 20.25 5.625ZM2.02138 18H13.7808H16.4929H20.9334C22.1557 18 23.1429 17.0367 23.1429 15.852C23.1429 15.4582 23.0308 15.0715 22.821 14.734L18.0478 7.12969C17.8996 6.89414 17.6392 6.75 17.3571 6.75C17.0751 6.75 16.8147 6.89414 16.6665 7.12617L14.9235 9.90352L10.3709 2.84766C10.1322 2.475 9.70915 2.25 9.25714 2.25C8.80513 2.25 8.38567 2.475 8.14339 2.84766L0.310982 14.9906C0.108482 15.3035 0 15.6656 0 16.0348C0 17.1211 0.904018 18 2.02138 18Z" fill="white"/>
<path d="M37.0634 10.3154H34.3666V8.61445H37.0634C37.4802 8.61445 37.8194 8.54661 38.0811 8.41092C38.3428 8.27038 38.5342 8.07654 38.6554 7.82938C38.7765 7.58223 38.8371 7.30358 38.8371 6.99343C38.8371 6.67843 38.7765 6.38524 38.6554 6.11386C38.5342 5.84248 38.3428 5.62441 38.0811 5.45964C37.8194 5.29487 37.4802 5.21249 37.0634 5.21249H35.1226V14.0881H32.9418V3.50423H37.0634C37.8921 3.50423 38.6021 3.65446 39.1933 3.95492C39.7894 4.25053 40.2449 4.66003 40.5599 5.18341C40.8749 5.70679 41.0324 6.30528 41.0324 6.97889C41.0324 7.66219 40.8749 8.25342 40.5599 8.75257C40.2449 9.25172 39.7894 9.63698 39.1933 9.90837C38.6021 10.1797 37.8921 10.3154 37.0634 10.3154ZM45.6338 5.31425L42.7552 14.0881H40.4363L44.3689 3.50423H45.8446L45.6338 5.31425ZM48.0253 14.0881L45.1395 5.31425L44.9069 3.50423H46.397L50.3515 14.0881H48.0253ZM47.8945 10.1482V11.8565H42.3045V10.1482H47.8945ZM51.3328 3.50423H55.28C56.0893 3.50423 56.7847 3.62539 57.3662 3.86769C57.9526 4.11 58.4033 4.46861 58.7183 4.94353C59.0333 5.41845 59.1908 6.0024 59.1908 6.6954C59.1908 7.26239 59.0938 7.74942 58.9 8.1565C58.711 8.55872 58.442 8.89553 58.0931 9.16691C57.749 9.43345 57.3444 9.64668 56.8792 9.8066L56.1886 10.1701H52.7576L52.743 8.46907H55.2945C55.6773 8.46907 55.9948 8.40123 56.2468 8.26553C56.4988 8.12984 56.6878 7.94085 56.8138 7.69854C56.9446 7.45623 57.01 7.17516 57.01 6.85532C57.01 6.51609 56.947 6.2229 56.821 5.97575C56.695 5.7286 56.5036 5.5396 56.2468 5.40875C55.9899 5.27791 55.6676 5.21249 55.28 5.21249H53.5136V14.0881H51.3328V3.50423ZM57.2499 14.0881L54.8365 9.37045L57.1409 9.35591L59.5833 13.9864V14.0881H57.2499ZM67.0051 10.5771H69.1786C69.135 11.2895 68.9387 11.9219 68.5898 12.4744C68.2457 13.0268 67.7635 13.4581 67.1432 13.7683C66.5278 14.0784 65.7863 14.2335 64.9189 14.2335C64.2404 14.2335 63.6322 14.1172 63.0943 13.8846C62.5564 13.6471 62.096 13.3079 61.7132 12.8669C61.3352 12.4259 61.0468 11.8928 60.8481 11.2677C60.6494 10.6426 60.5501 9.94229 60.5501 9.16691V8.43273C60.5501 7.65735 60.6519 6.95709 60.8554 6.33194C61.0638 5.70194 61.3594 5.16645 61.7422 4.72545C62.1299 4.28446 62.5927 3.94523 63.1307 3.70777C63.6686 3.47031 64.2695 3.35158 64.9334 3.35158C65.8154 3.35158 66.5593 3.5115 67.165 3.83134C67.7757 4.15119 68.2481 4.59218 68.5825 5.15433C68.9218 5.71648 69.1253 6.35617 69.1931 7.07339H67.0124C66.9882 6.64693 66.9034 6.2859 66.758 5.99029C66.6126 5.68983 66.3921 5.46448 66.0965 5.31425C65.8057 5.15918 65.418 5.08164 64.9334 5.08164C64.5699 5.08164 64.2525 5.14949 63.9811 5.28518C63.7098 5.42087 63.482 5.62683 63.2978 5.90306C63.1137 6.17928 62.9756 6.5282 62.8835 6.94982C62.7963 7.36658 62.7527 7.85604 62.7527 8.41819V9.16691C62.7527 9.71452 62.7939 10.1967 62.8762 10.6135C62.9586 11.0254 63.0846 11.3743 63.2542 11.6602C63.4287 11.9413 63.6516 12.1545 63.923 12.2999C64.1992 12.4405 64.5312 12.5107 64.9189 12.5107C65.3744 12.5107 65.75 12.438 66.0456 12.2927C66.3412 12.1473 66.5665 11.9316 66.7216 11.6457C66.8815 11.3598 66.976 11.0036 67.0051 10.5771ZM77.669 7.81485V9.51583H72.1444V7.81485H77.669ZM72.7914 3.50423V14.0881H70.6106V3.50423H72.7914ZM79.2246 3.50423V14.0881H77.0511V3.50423H79.2246ZM83.4407 3.50423V14.0881H81.2672V3.50423H83.4407ZM92.4399 14.0881H90.1356L90.1501 12.3872H92.4399C93.0118 12.3872 93.4939 12.2587 93.8865 12.0019C94.279 11.7402 94.5746 11.3598 94.7733 10.8606C94.9769 10.3615 95.0786 9.75814 95.0786 9.0506V8.53449C95.0786 7.99173 95.0205 7.51439 94.9042 7.10247C94.7927 6.69055 94.6255 6.34405 94.4026 6.06298C94.1797 5.7819 93.9059 5.5711 93.5812 5.43056C93.2565 5.28518 92.8833 5.21249 92.4617 5.21249H90.092V3.50423H92.4617C93.1693 3.50423 93.8162 3.62539 94.4026 3.86769C94.9938 4.10515 95.5051 4.4468 95.9364 4.89264C96.3677 5.33848 96.6997 5.87156 96.9323 6.49186C97.1697 7.10731 97.2885 7.79304 97.2885 8.54903V9.0506C97.2885 9.80175 97.1697 10.4875 96.9323 11.1078C96.6997 11.7281 96.3677 12.2612 95.9364 12.707C95.5099 13.148 94.9987 13.4896 94.4026 13.7319C93.8114 13.9694 93.1571 14.0881 92.4399 14.0881ZM91.3714 3.50423V14.0881H89.1906V3.50423H91.3714ZM100.654 2.9227V4.02761C100.654 4.34261 100.593 4.6673 100.472 5.00168C100.356 5.33606 100.199 5.65348 99.9999 5.95394C99.8012 6.24955 99.5831 6.50155 99.3456 6.70993L98.3643 6.14294C98.5436 5.85702 98.6962 5.54687 98.8222 5.21249C98.9482 4.87326 99.0112 4.48072 99.0112 4.03488V2.9227H100.654ZM104.608 3.50423V14.0881H102.435V3.50423H104.608ZM111.165 3.50423V14.0881H108.992V3.50423H111.165ZM114.422 3.50423V5.21249H105.786V3.50423H114.422ZM119.183 5.31425L116.305 14.0881H113.986L117.918 3.50423H119.394L119.183 5.31425ZM121.575 14.0881L118.689 5.31425L118.456 3.50423H119.946L123.901 14.0881H121.575ZM121.444 10.1482V11.8565H115.854V10.1482H121.444ZM131.686 12.3872V14.0881H126.358V12.3872H131.686ZM127.063 3.50423V14.0881H124.882V3.50423H127.063ZM135.255 3.50423V14.0881H133.082V3.50423H135.255ZM141.732 5.31425L138.854 14.0881H136.535L140.467 3.50423H141.943L141.732 5.31425ZM144.124 14.0881L141.238 5.31425L141.005 3.50423H142.495L146.45 14.0881H144.124ZM143.993 10.1482V11.8565H138.403V10.1482H143.993Z" fill="white"/>
</svg>
